<svg width="831" height="292" viewBox="0 0 831 292" fill="none" xmlns="http://www.w3.org/2000/svg">
<mask id="path-1-outside-1_201_440" maskUnits="userSpaceOnUse" x="0" y="0" width="831" height="292" fill="black">
<rect fill="white" width="831" height="292"/>
<path d="M113.1 222.1L110.7 250H45V67.9H40.5L43.5 40H113.1L110.1 67.9H73.5V130.9H107.1L104.1 158.8H73.5V222.1H113.1ZM119.121 100H145.521L162.321 196.9L179.121 100H205.521L176.721 250H147.921L119.121 100ZM244.777 250C235.577 250 228.177 247.4 222.577 242.2C217.177 236.8 214.477 230.1 214.477 222.1V127.9C214.477 119.7 217.177 113 222.577 107.8C228.177 102.6 235.577 100 244.777 100H245.977C251.377 100 256.177 101.3 260.377 103.9V100H288.877V222.1H293.077L296.077 250H260.377V238.3L252.877 250H244.777ZM244.477 127.9C243.477 127.9 242.977 128.4 242.977 129.4V220.6C242.977 221.6 243.477 222.1 244.477 222.1H260.377V127.9H244.477ZM338.039 40L338.339 222.1H345.839L348.839 250H309.839L309.539 67.9H303.539L306.539 40H338.039ZM406.514 222.1V100H435.014V222.1H439.514L442.514 250H406.514V238.3L399.014 250H390.914C381.714 250 374.314 247.4 368.714 242.2C363.314 236.8 360.614 230.1 360.614 222.1V127.9H353.414L356.414 100H389.114V220.6C389.114 221.6 389.614 222.1 390.614 222.1H406.514Z"/>
<path d="M449.941 67.9V40H532.441V67.9H505.441V250H476.941V67.9H449.941ZM523.547 223.3V126.7C523.547 118.3 526.147 111.6 531.347 106.6C536.547 101.4 543.347 98.8 551.747 98.8H570.347C578.747 98.8 585.547 101.4 590.747 106.6C595.947 111.6 598.547 118.3 598.547 126.7V163.6H570.047V128.2C570.047 127.2 569.547 126.7 568.547 126.7H553.547C552.547 126.7 552.047 127.2 552.047 128.2V163.6H598.547V191.5H552.047V221.8C552.047 222.8 552.547 223.3 553.547 223.3H568.547C569.547 223.3 570.047 222.9 570.047 222.1V205.6H598.547V223.3C598.547 231.7 595.947 238.5 590.747 243.7C585.547 248.7 578.747 251.2 570.347 251.2H551.747C543.347 251.2 536.547 248.7 531.347 243.7C526.147 238.5 523.547 231.7 523.547 223.3ZM613.559 223.3V126.7C613.559 118.3 616.159 111.6 621.359 106.6C626.559 101.4 633.359 98.8 641.759 98.8H663.359C671.759 98.8 678.559 101.4 683.759 106.6C688.959 111.6 691.559 118.3 691.559 126.7V166.3L663.059 163.3V128.2C663.059 127.2 662.559 126.7 661.559 126.7H643.559C642.559 126.7 642.059 127.2 642.059 128.2V221.8C642.059 222.8 642.559 223.3 643.559 223.3H661.559C662.559 223.3 663.059 222.9 663.059 222.1V187.3H691.559V223.3C691.559 231.7 688.959 238.5 683.759 243.7C678.559 248.7 671.759 251.2 663.359 251.2H641.759C633.359 251.2 626.559 248.7 621.359 243.7C616.159 238.5 613.559 231.7 613.559 223.3ZM709.235 250V67.9H702.035L705.035 40H737.735V111.7L745.235 100H753.335C762.535 100 769.835 102.6 775.235 107.8C780.835 113 783.635 119.7 783.635 127.9V222.1H790.835L787.835 250H755.135V129.4C755.135 128.4 754.635 127.9 753.635 127.9H737.735V250H709.235Z"/>
</mask>
<path d="M113.1 222.1L110.7 250H45V67.9H40.5L43.5 40H113.1L110.1 67.9H73.5V130.9H107.1L104.1 158.8H73.5V222.1H113.1ZM119.121 100H145.521L162.321 196.9L179.121 100H205.521L176.721 250H147.921L119.121 100ZM244.777 250C235.577 250 228.177 247.4 222.577 242.2C217.177 236.8 214.477 230.1 214.477 222.1V127.9C214.477 119.7 217.177 113 222.577 107.8C228.177 102.6 235.577 100 244.777 100H245.977C251.377 100 256.177 101.3 260.377 103.9V100H288.877V222.1H293.077L296.077 250H260.377V238.3L252.877 250H244.777ZM244.477 127.9C243.477 127.9 242.977 128.4 242.977 129.4V220.6C242.977 221.6 243.477 222.1 244.477 222.1H260.377V127.9H244.477ZM338.039 40L338.339 222.1H345.839L348.839 250H309.839L309.539 67.9H303.539L306.539 40H338.039ZM406.514 222.1V100H435.014V222.1H439.514L442.514 250H406.514V238.3L399.014 250H390.914C381.714 250 374.314 247.4 368.714 242.2C363.314 236.8 360.614 230.1 360.614 222.1V127.9H353.414L356.414 100H389.114V220.6C389.114 221.6 389.614 222.1 390.614 222.1H406.514Z" fill="#FF8318"/>
<path d="M449.941 67.9V40H532.441V67.9H505.441V250H476.941V67.9H449.941ZM523.547 223.3V126.7C523.547 118.3 526.147 111.6 531.347 106.6C536.547 101.4 543.347 98.8 551.747 98.8H570.347C578.747 98.8 585.547 101.4 590.747 106.6C595.947 111.6 598.547 118.3 598.547 126.7V163.6H570.047V128.2C570.047 127.2 569.547 126.7 568.547 126.7H553.547C552.547 126.7 552.047 127.2 552.047 128.2V163.6H598.547V191.5H552.047V221.8C552.047 222.8 552.547 223.3 553.547 223.3H568.547C569.547 223.3 570.047 222.9 570.047 222.1V205.6H598.547V223.3C598.547 231.7 595.947 238.5 590.747 243.7C585.547 248.7 578.747 251.2 570.347 251.2H551.747C543.347 251.2 536.547 248.7 531.347 243.7C526.147 238.5 523.547 231.7 523.547 223.3ZM613.559 223.3V126.7C613.559 118.3 616.159 111.6 621.359 106.6C626.559 101.4 633.359 98.8 641.759 98.8H663.359C671.759 98.8 678.559 101.4 683.759 106.6C688.959 111.6 691.559 118.3 691.559 126.7V166.3L663.059 163.3V128.2C663.059 127.2 662.559 126.7 661.559 126.7H643.559C642.559 126.7 642.059 127.2 642.059 128.2V221.8C642.059 222.8 642.559 223.3 643.559 223.3H661.559C662.559 223.3 663.059 222.9 663.059 222.1V187.3H691.559V223.3C691.559 231.7 688.959 238.5 683.759 243.7C678.559 248.7 671.759 251.2 663.359 251.2H641.759C633.359 251.2 626.559 248.7 621.359 243.7C616.159 238.5 613.559 231.7 613.559 223.3ZM709.235 250V67.9H702.035L705.035 40H737.735V111.7L745.235 100H753.335C762.535 100 769.835 102.6 775.235 107.8C780.835 113 783.635 119.7 783.635 127.9V222.1H790.835L787.835 250H755.135V129.4C755.135 128.4 754.635 127.9 753.635 127.9H737.735V250H709.235Z" fill="#2440AE"/>
<path d="M113.1 222.1L152.953 225.528C153.913 214.365 150.147 203.31 142.571 195.055C134.996 186.799 124.305 182.1 113.1 182.1V222.1ZM110.7 250V290C131.463 290 148.773 274.114 150.553 253.428L110.7 250ZM45 250H5C5 272.091 22.9086 290 45 290V250ZM45 67.9H85C85 45.8086 67.0914 27.9 45 27.9V67.9ZM40.5 67.9L0.729256 63.6236C-0.484505 74.9115 3.15561 86.1835 10.7422 94.6296C18.3287 103.076 29.147 107.9 40.5 107.9V67.9ZM43.5 40V-1.43051e-05C23.0639 -1.43051e-05 5.91409 15.4046 3.72926 35.7236L43.5 40ZM113.1 40L152.871 44.2764C154.085 32.9884 150.444 21.7164 142.858 13.2704C135.271 4.82434 124.453 -1.43051e-05 113.1 -1.43051e-05V40ZM110.1 67.9V107.9C130.536 107.9 147.686 92.4954 149.871 72.1764L110.1 67.9ZM73.5 67.9V27.9C51.4086 27.9 33.5 45.8086 33.5 67.9H73.5ZM73.5 130.9H33.5C33.5 152.991 51.4086 170.9 73.5 170.9V130.9ZM107.1 130.9L146.871 135.176C148.085 123.888 144.444 112.616 136.858 104.17C129.271 95.7243 118.453 90.9 107.1 90.9V130.9ZM104.1 158.8V198.8C124.536 198.8 141.686 183.395 143.871 163.076L104.1 158.8ZM73.5 158.8V118.8C51.4086 118.8 33.5 136.709 33.5 158.8H73.5ZM73.5 222.1H33.5C33.5 244.191 51.4086 262.1 73.5 262.1V222.1ZM113.1 222.1L73.2472 218.672L70.8472 246.572L110.7 250L150.553 253.428L152.953 225.528L113.1 222.1ZM110.7 250V210H45V250V290H110.7V250ZM45 250H85V67.9H45H5V250H45ZM45 67.9V27.9H40.5V67.9V107.9H45V67.9ZM40.5 67.9L80.2707 72.1764L83.2707 44.2764L43.5 40L3.72926 35.7236L0.729256 63.6236L40.5 67.9ZM43.5 40V80H113.1V40V-1.43051e-05H43.5V40ZM113.1 40L73.3293 35.7236L70.3293 63.6236L110.1 67.9L149.871 72.1764L152.871 44.2764L113.1 40ZM110.1 67.9V27.9H73.5V67.9V107.9H110.1V67.9ZM73.5 67.9H33.5V130.9H73.5H113.5V67.9H73.5ZM73.5 130.9V170.9H107.1V130.9V90.9H73.5V130.9ZM107.1 130.9L67.3293 126.624L64.3293 154.524L104.1 158.8L143.871 163.076L146.871 135.176L107.1 130.9ZM104.1 158.8V118.8H73.5V158.8V198.8H104.1V158.8ZM73.5 158.8H33.5V222.1H73.5H113.5V158.8H73.5ZM73.5 222.1V262.1H113.1V222.1V182.1H73.5V222.1ZM119.121 100V60C107.191 60 95.8842 65.3249 88.2853 74.5215C80.6865 83.7181 77.5892 95.8264 79.8386 107.542L119.121 100ZM145.521 100L184.933 93.167C181.61 73.9979 164.976 60 145.521 60V100ZM162.321 196.9L122.909 203.733C126.232 222.902 142.866 236.9 162.321 236.9C181.776 236.9 198.41 222.902 201.733 203.733L162.321 196.9ZM179.121 100V60C159.666 60 143.032 73.9979 139.709 93.167L179.121 100ZM205.521 100L244.804 107.542C247.053 95.8264 243.956 83.7181 236.357 74.5215C228.758 65.3249 217.451 60 205.521 60V100ZM176.721 250V290C195.904 290 212.386 276.381 216.004 257.542L176.721 250ZM147.921 250L108.639 257.542C112.256 276.381 128.738 290 147.921 290V250ZM119.121 100V140H145.521V100V60H119.121V100ZM145.521 100L106.109 106.833L122.909 203.733L162.321 196.9L201.733 190.067L184.933 93.167L145.521 100ZM162.321 196.9L201.733 203.733L218.533 106.833L179.121 100L139.709 93.167L122.909 190.067L162.321 196.9ZM179.121 100V140H205.521V100V60H179.121V100ZM205.521 100L166.239 92.4578L137.439 242.458L176.721 250L216.004 257.542L244.804 107.542L205.521 100ZM176.721 250V210H147.921V250V290H176.721V250ZM147.921 250L187.204 242.458L158.404 92.4578L119.121 100L79.8386 107.542L108.639 257.542L147.921 250ZM222.577 242.2L194.292 270.484C194.641 270.833 194.997 271.176 195.359 271.512L222.577 242.2ZM222.577 107.8L195.359 78.4882C195.181 78.653 195.005 78.8193 194.831 78.9872L222.577 107.8ZM260.377 103.9L239.322 137.911C251.66 145.548 267.166 145.905 279.842 138.844C292.519 131.783 300.377 118.41 300.377 103.9H260.377ZM260.377 100V60C238.285 60 220.377 77.9086 220.377 100H260.377ZM288.877 100H328.877C328.877 77.9086 310.968 60 288.877 60V100ZM288.877 222.1H248.877C248.877 244.191 266.785 262.1 288.877 262.1V222.1ZM293.077 222.1L332.847 217.824C330.662 197.505 313.513 182.1 293.077 182.1V222.1ZM296.077 250V290C307.43 290 318.248 285.176 325.834 276.73C333.421 268.284 337.061 257.012 335.847 245.724L296.077 250ZM260.377 250H220.377C220.377 272.091 238.285 290 260.377 290V250ZM260.377 238.3H300.377C300.377 220.54 288.667 204.907 271.624 199.914C254.581 194.92 236.286 201.762 226.701 216.713L260.377 238.3ZM252.877 250V290C266.506 290 279.197 283.061 286.552 271.587L252.877 250ZM260.377 222.1V262.1C282.468 262.1 300.377 244.191 300.377 222.1H260.377ZM260.377 127.9H300.377C300.377 105.809 282.468 87.9 260.377 87.9V127.9ZM244.777 250V210C243.929 210 244.36 209.881 245.586 210.312C246.928 210.783 248.462 211.651 249.795 212.888L222.577 242.2L195.359 271.512C209.811 284.932 227.656 290 244.777 290V250ZM222.577 242.2L250.861 213.916C251.746 214.8 252.827 216.249 253.602 218.174C254.363 220.062 254.477 221.528 254.477 222.1H214.477H174.477C174.477 240.147 181.003 257.195 194.292 270.484L222.577 242.2ZM214.477 222.1H254.477V127.9H214.477H174.477V222.1H214.477ZM214.477 127.9H254.477C254.477 128.235 254.409 129.675 253.602 131.676C252.765 133.753 251.525 135.454 250.322 136.613L222.577 107.8L194.831 78.9872C180.823 92.4762 174.477 109.959 174.477 127.9H214.477ZM222.577 107.8L249.795 137.112C248.462 138.349 246.928 139.217 245.586 139.688C244.36 140.119 243.929 140 244.777 140V100V60C227.656 60 209.811 65.0682 195.359 78.4882L222.577 107.8ZM244.777 100V140H245.977V100V60H244.777V100ZM245.977 100V140C245.446 140 244.457 139.933 243.17 139.584C241.859 139.229 240.536 138.662 239.322 137.911L260.377 103.9L281.431 69.8894C270.322 63.0127 258.097 60 245.977 60V100ZM260.377 103.9H300.377V100H260.377H220.377V103.9H260.377ZM260.377 100V140H288.877V100V60H260.377V100ZM288.877 100H248.877V222.1H288.877H328.877V100H288.877ZM288.877 222.1V262.1H293.077V222.1V182.1H288.877V222.1ZM293.077 222.1L253.306 226.376L256.306 254.276L296.077 250L335.847 245.724L332.847 217.824L293.077 222.1ZM296.077 250V210H260.377V250V290H296.077V250ZM260.377 250H300.377V238.3H260.377H220.377V250H260.377ZM260.377 238.3L226.701 216.713L219.201 228.413L252.877 250L286.552 271.587L294.052 259.887L260.377 238.3ZM252.877 250V210H244.777V250V290H252.877V250ZM244.477 127.9V87.9C237.811 87.9 225.465 89.5935 215.067 99.9907C204.67 110.388 202.977 122.734 202.977 129.4H242.977H282.977C282.977 135.066 281.533 146.662 271.636 156.559C261.739 166.456 250.142 167.9 244.477 167.9V127.9ZM242.977 129.4H202.977V220.6H242.977H282.977V129.4H242.977ZM242.977 220.6H202.977C202.977 227.266 204.67 239.612 215.067 250.009C225.464 260.406 237.811 262.1 244.477 262.1V222.1V182.1C250.142 182.1 261.739 183.544 271.636 193.441C281.533 203.338 282.977 214.934 282.977 220.6H242.977ZM244.477 222.1V262.1H260.377V222.1V182.1H244.477V222.1ZM260.377 222.1H300.377V127.9H260.377H220.377V222.1H260.377ZM260.377 127.9V87.9H244.477V127.9V167.9H260.377V127.9ZM338.039 40L378.039 39.9341C378.003 17.8685 360.105 -1.43051e-05 338.039 -1.43051e-05V40ZM338.339 222.1L298.339 222.166C298.375 244.232 316.273 262.1 338.339 262.1V222.1ZM345.839 222.1L385.61 217.824C383.425 197.505 366.275 182.1 345.839 182.1V222.1ZM348.839 250V290C360.192 290 371.01 285.176 378.597 276.73C386.183 268.284 389.824 257.012 388.61 245.724L348.839 250ZM309.839 250L269.839 250.066C269.875 272.132 287.773 290 309.839 290V250ZM309.539 67.9L349.539 67.8341C349.503 45.7685 331.605 27.9 309.539 27.9V67.9ZM303.539 67.9L263.768 63.6236C262.555 74.9115 266.195 86.1835 273.781 94.6296C281.368 103.076 292.186 107.9 303.539 107.9V67.9ZM306.539 40V-1.43051e-05C286.103 -1.43051e-05 268.953 15.4046 266.768 35.7236L306.539 40ZM338.039 40L298.039 40.0659L298.339 222.166L338.339 222.1L378.339 222.034L378.039 39.9341L338.039 40ZM338.339 222.1V262.1H345.839V222.1V182.1H338.339V222.1ZM345.839 222.1L306.068 226.376L309.068 254.276L348.839 250L388.61 245.724L385.61 217.824L345.839 222.1ZM348.839 250V210H309.839V250V290H348.839V250ZM309.839 250L349.839 249.934L349.539 67.8341L309.539 67.9L269.539 67.9659L269.839 250.066L309.839 250ZM309.539 67.9V27.9H303.539V67.9V107.9H309.539V67.9ZM303.539 67.9L343.31 72.1764L346.31 44.2764L306.539 40L266.768 35.7236L263.768 63.6236L303.539 67.9ZM306.539 40V80H338.039V40V-1.43051e-05H306.539V40ZM406.514 222.1V262.1C428.605 262.1 446.514 244.191 446.514 222.1H406.514ZM406.514 100V60C384.423 60 366.514 77.9086 366.514 100H406.514ZM435.014 100H475.014C475.014 77.9086 457.105 60 435.014 60V100ZM435.014 222.1H395.014C395.014 244.191 412.923 262.1 435.014 262.1V222.1ZM439.514 222.1L479.285 217.824C477.1 197.505 459.95 182.1 439.514 182.1V222.1ZM442.514 250V290C453.867 290 464.685 285.176 472.272 276.73C479.858 268.284 483.499 257.012 482.285 245.724L442.514 250ZM406.514 250H366.514C366.514 272.091 384.423 290 406.514 290V250ZM406.514 238.3H446.514C446.514 220.54 434.804 204.907 417.761 199.914C400.718 194.92 382.423 201.762 372.839 216.713L406.514 238.3ZM399.014 250V290C412.643 290 425.334 283.061 432.689 271.587L399.014 250ZM368.714 242.2L340.43 270.484C340.779 270.833 341.134 271.176 341.496 271.512L368.714 242.2ZM360.614 127.9H400.614C400.614 105.809 382.705 87.9 360.614 87.9V127.9ZM353.414 127.9L313.643 123.624C312.43 134.912 316.07 146.184 323.656 154.63C331.243 163.076 342.061 167.9 353.414 167.9V127.9ZM356.414 100V60C335.978 60 318.828 75.4046 316.643 95.7236L356.414 100ZM389.114 100H429.114C429.114 77.9086 411.205 60 389.114 60V100ZM406.514 222.1H446.514V100H406.514H366.514V222.1H406.514ZM406.514 100V140H435.014V100V60H406.514V100ZM435.014 100H395.014V222.1H435.014H475.014V100H435.014ZM435.014 222.1V262.1H439.514V222.1V182.1H435.014V222.1ZM439.514 222.1L399.743 226.376L402.743 254.276L442.514 250L482.285 245.724L479.285 217.824L439.514 222.1ZM442.514 250V210H406.514V250V290H442.514V250ZM406.514 250H446.514V238.3H406.514H366.514V250H406.514ZM406.514 238.3L372.839 216.713L365.339 228.413L399.014 250L432.689 271.587L440.189 259.887L406.514 238.3ZM399.014 250V210H390.914V250V290H399.014V250ZM390.914 250V210C390.066 210 390.498 209.881 391.724 210.312C393.065 210.783 394.6 211.651 395.932 212.888L368.714 242.2L341.496 271.512C355.948 284.932 373.794 290 390.914 290V250ZM368.714 242.2L396.998 213.916C397.883 214.8 398.964 216.249 399.74 218.174C400.501 220.062 400.614 221.528 400.614 222.1H360.614H320.614C320.614 240.147 327.14 257.195 340.43 270.484L368.714 242.2ZM360.614 222.1H400.614V127.9H360.614H320.614V222.1H360.614ZM360.614 127.9V87.9H353.414V127.9V167.9H360.614V127.9ZM353.414 127.9L393.185 132.176L396.185 104.276L356.414 100L316.643 95.7236L313.643 123.624L353.414 127.9ZM356.414 100V140H389.114V100V60H356.414V100ZM389.114 100H349.114V220.6H389.114H429.114V100H389.114ZM389.114 220.6H349.114C349.114 227.266 350.808 239.612 361.205 250.009C371.602 260.406 383.948 262.1 390.614 262.1V222.1V182.1C396.28 182.1 407.876 183.544 417.773 193.441C427.671 203.338 429.114 214.934 429.114 220.6H389.114ZM390.614 222.1V262.1H406.514V222.1V182.1H390.614V222.1ZM449.941 67.9H409.941C409.941 89.9914 427.85 107.9 449.941 107.9V67.9ZM449.941 40V-1.43051e-05C427.85 -1.43051e-05 409.941 17.9086 409.941 40H449.941ZM532.441 40H572.441C572.441 17.9086 554.533 -1.43051e-05 532.441 -1.43051e-05V40ZM532.441 67.9V107.9C554.533 107.9 572.441 89.9914 572.441 67.9H532.441ZM505.441 67.9V27.9C483.35 27.9 465.441 45.8086 465.441 67.9H505.441ZM505.441 250V290C527.533 290 545.441 272.091 545.441 250H505.441ZM476.941 250H436.941C436.941 272.091 454.85 290 476.941 290V250ZM476.941 67.9H516.941C516.941 45.8086 499.033 27.9 476.941 27.9V67.9ZM449.941 67.9H489.941V40H449.941H409.941V67.9H449.941ZM449.941 40V80H532.441V40V-1.43051e-05H449.941V40ZM532.441 40H492.441V67.9H532.441H572.441V40H532.441ZM532.441 67.9V27.9H505.441V67.9V107.9H532.441V67.9ZM505.441 67.9H465.441V250H505.441H545.441V67.9H505.441ZM505.441 250V210H476.941V250V290H505.441V250ZM476.941 250H516.941V67.9H476.941H436.941V250H476.941ZM476.941 67.9V27.9H449.941V67.9V107.9H476.941V67.9ZM531.347 106.6L559.071 135.433C559.26 135.252 559.446 135.069 559.631 134.884L531.347 106.6ZM590.747 106.6L562.463 134.884C562.647 135.069 562.834 135.252 563.023 135.433L590.747 106.6ZM598.547 163.6V203.6C620.638 203.6 638.547 185.691 638.547 163.6H598.547ZM570.047 163.6H530.047C530.047 185.691 547.955 203.6 570.047 203.6V163.6ZM552.047 163.6H512.047C512.047 185.691 529.955 203.6 552.047 203.6V163.6ZM598.547 163.6H638.547C638.547 141.509 620.638 123.6 598.547 123.6V163.6ZM598.547 191.5V231.5C620.638 231.5 638.547 213.591 638.547 191.5H598.547ZM552.047 191.5V151.5C529.955 151.5 512.047 169.409 512.047 191.5H552.047ZM570.047 205.6V165.6C547.955 165.6 530.047 183.509 530.047 205.6H570.047ZM598.547 205.6H638.547C638.547 183.509 620.638 165.6 598.547 165.6V205.6ZM590.747 243.7L618.471 272.533C618.66 272.352 618.846 272.169 619.031 271.984L590.747 243.7ZM531.347 243.7L503.063 271.984C503.247 272.169 503.434 272.352 503.623 272.533L531.347 243.7ZM523.547 223.3H563.547V126.7H523.547H483.547V223.3H523.547ZM523.547 126.7H563.547C563.547 126.628 563.553 127.873 562.787 129.846C561.974 131.944 560.651 133.915 559.071 135.433L531.347 106.6L503.623 77.7667C489.28 91.5576 483.547 109.364 483.547 126.7H523.547ZM531.347 106.6L559.631 134.884C558.296 136.219 556.539 137.383 554.632 138.112C552.827 138.802 551.689 138.8 551.747 138.8V98.8V58.8C534.378 58.8 516.849 64.5292 503.063 78.3157L531.347 106.6ZM551.747 98.8V138.8H570.347V98.8V58.8H551.747V98.8ZM570.347 98.8V138.8C570.405 138.8 569.266 138.802 567.461 138.112C565.554 137.383 563.797 136.219 562.463 134.884L590.747 106.6L619.031 78.3157C605.245 64.5292 587.716 58.8 570.347 58.8V98.8ZM590.747 106.6L563.023 135.433C561.443 133.915 560.12 131.944 559.306 129.846C558.541 127.873 558.547 126.628 558.547 126.7H598.547H638.547C638.547 109.364 632.814 91.5576 618.471 77.7667L590.747 106.6ZM598.547 126.7H558.547V163.6H598.547H638.547V126.7H598.547ZM598.547 163.6V123.6H570.047V163.6V203.6H598.547V163.6ZM570.047 163.6H610.047V128.2H570.047H530.047V163.6H570.047ZM570.047 128.2H610.047C610.047 121.534 608.353 109.188 597.956 98.7907C587.559 88.3935 575.213 86.7 568.547 86.7V126.7V166.7C562.881 166.7 551.285 165.256 541.388 155.359C531.49 145.462 530.047 133.866 530.047 128.2H570.047ZM568.547 126.7V86.7H553.547V126.7V166.7H568.547V126.7ZM553.547 126.7V86.7C546.881 86.7 534.535 88.3935 524.138 98.7907C513.74 109.188 512.047 121.534 512.047 128.2H552.047H592.047C592.047 133.866 590.603 145.462 580.706 155.359C570.809 165.256 559.213 166.7 553.547 166.7V126.7ZM552.047 128.2H512.047V163.6H552.047H592.047V128.2H552.047ZM552.047 163.6V203.6H598.547V163.6V123.6H552.047V163.6ZM598.547 163.6H558.547V191.5H598.547H638.547V163.6H598.547ZM598.547 191.5V151.5H552.047V191.5V231.5H598.547V191.5ZM552.047 191.5H512.047V221.8H552.047H592.047V191.5H552.047ZM552.047 221.8H512.047C512.047 228.466 513.74 240.812 524.138 251.209C534.535 261.606 546.881 263.3 553.547 263.3V223.3V183.3C559.213 183.3 570.809 184.744 580.706 194.641C590.603 204.538 592.047 216.134 592.047 221.8H552.047ZM553.547 223.3V263.3H568.547V223.3V183.3H553.547V223.3ZM568.547 223.3V263.3C573.321 263.3 584.303 262.52 594.66 254.235C606.721 244.586 610.047 231.328 610.047 222.1H570.047H530.047C530.047 213.672 533.123 201.014 544.684 191.765C554.541 183.88 564.773 183.3 568.547 183.3V223.3ZM570.047 222.1H610.047V205.6H570.047H530.047V222.1H570.047ZM570.047 205.6V245.6H598.547V205.6V165.6H570.047V205.6ZM598.547 205.6H558.547V223.3H598.547H638.547V205.6H598.547ZM598.547 223.3H558.547C558.547 223.358 558.545 222.22 559.235 220.415C559.964 218.507 561.128 216.75 562.463 215.416L590.747 243.7L619.031 271.984C632.818 258.198 638.547 240.669 638.547 223.3H598.547ZM590.747 243.7L563.023 214.867C564.429 213.515 566.174 212.433 567.944 211.782C569.608 211.17 570.575 211.2 570.347 211.2V251.2V291.2C587.259 291.2 604.6 285.871 618.471 272.533L590.747 243.7ZM570.347 251.2V211.2H551.747V251.2V291.2H570.347V251.2ZM551.747 251.2V211.2C551.518 211.2 552.486 211.17 554.149 211.782C555.919 212.433 557.665 213.515 559.071 214.867L531.347 243.7L503.623 272.533C517.493 285.871 534.835 291.2 551.747 291.2V251.2ZM531.347 243.7L559.631 215.416C560.966 216.75 562.13 218.507 562.859 220.415C563.549 222.22 563.547 223.358 563.547 223.3H523.547H483.547C483.547 240.669 489.276 258.198 503.063 271.984L531.347 243.7ZM621.359 106.6L649.083 135.433C649.271 135.252 649.458 135.069 649.643 134.884L621.359 106.6ZM683.759 106.6L655.474 134.884C655.659 135.069 655.846 135.252 656.034 135.433L683.759 106.6ZM691.559 166.3L687.371 206.08C698.646 207.267 709.896 203.613 718.321 196.028C726.747 188.442 731.559 177.637 731.559 166.3H691.559ZM663.059 163.3H623.059C623.059 183.77 638.513 200.937 658.871 203.08L663.059 163.3ZM663.059 187.3V147.3C640.967 147.3 623.059 165.209 623.059 187.3H663.059ZM691.559 187.3H731.559C731.559 165.209 713.65 147.3 691.559 147.3V187.3ZM683.759 243.7L711.483 272.533C711.671 272.352 711.858 272.169 712.043 271.984L683.759 243.7ZM621.359 243.7L593.074 271.984C593.259 272.169 593.446 272.352 593.634 272.533L621.359 243.7ZM613.559 223.3H653.559V126.7H613.559H573.559V223.3H613.559ZM613.559 126.7H653.559C653.559 126.628 653.565 127.873 652.799 129.846C651.985 131.944 650.662 133.915 649.083 135.433L621.359 106.6L593.634 77.7667C579.292 91.5576 573.559 109.364 573.559 126.7H613.559ZM621.359 106.6L649.643 134.884C648.308 136.219 646.551 137.383 644.644 138.112C642.839 138.802 641.701 138.8 641.759 138.8V98.8V58.8C624.39 58.8 606.861 64.5292 593.074 78.3157L621.359 106.6ZM641.759 98.8V138.8H663.359V98.8V58.8H641.759V98.8ZM663.359 98.8V138.8C663.416 138.8 662.278 138.802 660.473 138.112C658.566 137.383 656.809 136.219 655.474 134.884L683.759 106.6L712.043 78.3157C698.256 64.5292 680.727 58.8 663.359 58.8V98.8ZM683.759 106.6L656.034 135.433C654.455 133.915 653.132 131.944 652.318 129.846C651.552 127.873 651.559 126.628 651.559 126.7H691.559H731.559C731.559 109.364 725.826 91.5576 711.483 77.7667L683.759 106.6ZM691.559 126.7H651.559V166.3H691.559H731.559V126.7H691.559ZM691.559 166.3L695.746 126.52L667.246 123.52L663.059 163.3L658.871 203.08L687.371 206.08L691.559 166.3ZM663.059 163.3H703.059V128.2H663.059H623.059V163.3H663.059ZM663.059 128.2H703.059C703.059 121.534 701.365 109.188 690.968 98.7907C680.571 88.3935 668.224 86.7 661.559 86.7V126.7V166.7C655.893 166.7 644.297 165.256 634.399 155.359C624.502 145.462 623.059 133.866 623.059 128.2H663.059ZM661.559 126.7V86.7H643.559V126.7V166.7H661.559V126.7ZM643.559 126.7V86.7C636.893 86.7 624.547 88.3935 614.149 98.7907C603.752 109.188 602.059 121.534 602.059 128.2H642.059H682.059C682.059 133.866 680.615 145.462 670.718 155.359C660.821 165.256 649.224 166.7 643.559 166.7V126.7ZM642.059 128.2H602.059V221.8H642.059H682.059V128.2H642.059ZM642.059 221.8H602.059C602.059 228.466 603.752 240.812 614.149 251.209C624.547 261.606 636.893 263.3 643.559 263.3V223.3V183.3C649.224 183.3 660.821 184.744 670.718 194.641C680.615 204.538 682.059 216.134 682.059 221.8H642.059ZM643.559 223.3V263.3H661.559V223.3V183.3H643.559V223.3ZM661.559 223.3V263.3C666.332 263.3 677.315 262.52 687.671 254.235C699.733 244.586 703.059 231.328 703.059 222.1H663.059H623.059C623.059 213.672 626.135 201.014 637.696 191.765C647.552 183.88 657.785 183.3 661.559 183.3V223.3ZM663.059 222.1H703.059V187.3H663.059H623.059V222.1H663.059ZM663.059 187.3V227.3H691.559V187.3V147.3H663.059V187.3ZM691.559 187.3H651.559V223.3H691.559H731.559V187.3H691.559ZM691.559 223.3H651.559C651.559 223.358 651.556 222.22 652.247 220.415C652.976 218.507 654.14 216.75 655.474 215.416L683.759 243.7L712.043 271.984C725.829 258.198 731.559 240.669 731.559 223.3H691.559ZM683.759 243.7L656.034 214.867C657.44 213.515 659.186 212.433 660.956 211.782C662.62 211.17 663.587 211.2 663.359 211.2V251.2V291.2C680.271 291.2 697.612 285.871 711.483 272.533L683.759 243.7ZM663.359 251.2V211.2H641.759V251.2V291.2H663.359V251.2ZM641.759 251.2V211.2C641.53 211.2 642.497 211.17 644.161 211.782C645.931 212.433 647.677 213.515 649.083 214.867L621.359 243.7L593.634 272.533C607.505 285.871 624.847 291.2 641.759 291.2V251.2ZM621.359 243.7L649.643 215.416C650.978 216.75 652.141 218.507 652.871 220.415C653.561 222.22 653.559 223.358 653.559 223.3H613.559H573.559C573.559 240.669 579.288 258.198 593.074 271.984L621.359 243.7ZM709.235 250H669.235C669.235 272.091 687.144 290 709.235 290V250ZM709.235 67.9H749.235C749.235 45.8086 731.327 27.9 709.235 27.9V67.9ZM702.035 67.9L662.264 63.6236C661.051 74.9115 664.691 86.1835 672.277 94.6296C679.864 103.076 690.682 107.9 702.035 107.9V67.9ZM705.035 40V-1.43051e-05C684.599 -1.43051e-05 667.449 15.4046 665.264 35.7236L705.035 40ZM737.735 40H777.735C777.735 17.9086 759.827 -1.43051e-05 737.735 -1.43051e-05V40ZM737.735 111.7H697.735C697.735 129.46 709.445 145.093 726.488 150.086C743.531 155.08 761.826 148.238 771.41 133.287L737.735 111.7ZM745.235 100V60C731.606 60 718.915 66.9394 711.56 78.4133L745.235 100ZM775.235 107.8L747.49 136.613C747.664 136.781 747.84 136.947 748.017 137.112L775.235 107.8ZM783.635 222.1H743.635C743.635 244.191 761.544 262.1 783.635 262.1V222.1ZM790.835 222.1L830.606 226.376C831.82 215.088 828.18 203.816 820.593 195.37C813.006 186.924 802.188 182.1 790.835 182.1V222.1ZM787.835 250V290C808.271 290 825.421 274.595 827.606 254.276L787.835 250ZM755.135 250H715.135C715.135 272.091 733.044 290 755.135 290V250ZM737.735 127.9V87.9C715.644 87.9 697.735 105.809 697.735 127.9H737.735ZM737.735 250V290C759.827 290 777.735 272.091 777.735 250H737.735ZM709.235 250H749.235V67.9H709.235H669.235V250H709.235ZM709.235 67.9V27.9H702.035V67.9V107.9H709.235V67.9ZM702.035 67.9L741.806 72.1764L744.806 44.2764L705.035 40L665.264 35.7236L662.264 63.6236L702.035 67.9ZM705.035 40V80H737.735V40V-1.43051e-05H705.035V40ZM737.735 40H697.735V111.7H737.735H777.735V40H737.735ZM737.735 111.7L771.41 133.287L778.91 121.587L745.235 100L711.56 78.4133L704.06 90.1133L737.735 111.7ZM745.235 100V140H753.335V100V60H745.235V100ZM753.335 100V140C754.196 140 753.669 140.123 752.289 139.631C750.774 139.092 749.02 138.086 747.49 136.613L775.235 107.8L802.981 78.9872C788.512 65.054 770.399 60 753.335 60V100ZM775.235 107.8L748.017 137.112C746.857 136.035 745.545 134.341 744.628 132.149C743.739 130.021 743.635 128.413 743.635 127.9H783.635H823.635C823.635 109.487 816.847 91.8541 802.453 78.4883L775.235 107.8ZM783.635 127.9H743.635V222.1H783.635H823.635V127.9H783.635ZM783.635 222.1V262.1H790.835V222.1V182.1H783.635V222.1ZM790.835 222.1L751.064 217.824L748.064 245.724L787.835 250L827.606 254.276L830.606 226.376L790.835 222.1ZM787.835 250V210H755.135V250V290H787.835V250ZM755.135 250H795.135V129.4H755.135H715.135V250H755.135ZM755.135 129.4H795.135C795.135 122.734 793.442 110.388 783.044 99.9907C772.647 89.5935 760.301 87.9 753.635 87.9V127.9V167.9C747.969 167.9 736.373 166.456 726.476 156.559C716.579 146.662 715.135 135.066 715.135 129.4H755.135ZM753.635 127.9V87.9H737.735V127.9V167.9H753.635V127.9ZM737.735 127.9H697.735V250H737.735H777.735V127.9H737.735ZM737.735 250V210H709.235V250V290H737.735V250Z" fill="white" mask="url(#path-1-outside-1_201_440)"/>
</svg>
